<svg width="54" height="54" viewBox="0 0 54 54" fill="none" xmlns="http://www.w3.org/2000/svg">
<circle cx="27" cy="27" r="27" fill="#FDECF5"/>
<path d="M26.4946 16C20.1406 16 15 21.1462 15 27.5C15 33.8538 20.1406 39 26.4946 39C32.8479 39 38 33.8538 38 27.5C38 21.1462 32.8479 16 26.4946 16ZM26.5004 36.6997C21.4172 36.6997 17.3004 32.583 17.3004 27.5C17.3004 22.417 21.4172 18.3003 26.5004 18.3003C31.5828 18.3003 35.7004 22.417 35.7004 27.5C35.7004 32.583 31.5828 36.6997 26.5004 36.6997Z" fill="#FF38A2"/>
<path d="M25.4997 22H24V29.2135L29.2452 33L30 31.5214L25.4997 28.3121V22Z" fill="#FF38A2"/>
</svg>
