<svg width="90" height="90" viewBox="0 0 90 90" fill="none" xmlns="http://www.w3.org/2000/svg">
<rect width="90" height="90" rx="20" fill="#FFF0E0"/>
<path d="M63.8895 41.5007V26.5666C63.8895 23.0572 61.0556 20.1788 57.6033 20.1788H57.0714C56.9837 19.9985 56.9837 19.8182 56.8949 19.549C56.3629 18.2895 55.0348 17.7499 53.6191 18.1092C52.2021 18.4698 51.2283 19.549 50.3433 20.7184C48.661 19.549 46.6244 18.9193 44.5879 18.9193C42.8167 18.9193 41.1343 19.3687 39.6297 20.2689H33.4312C29.9789 20.2689 27.145 23.1473 27.145 26.6568V41.5909H25.1973C21.745 41.5909 19 44.3791 19 47.8886V53.8269C19 57.3351 21.745 60.1246 25.1973 60.1246H27.145V65.6122C27.145 69.1203 29.9789 72 33.4312 72H57.5145C60.968 72 63.8006 69.1203 63.8006 65.6122V60.1246C67.2542 60.1246 69.998 57.3351 69.998 53.8269V47.8886C70.0868 44.3791 67.2542 41.5007 63.8895 41.5007ZM50.5198 23.3276C50.6963 23.0572 50.9629 22.788 51.1394 22.5176C51.2283 22.4274 51.3171 22.3373 51.4048 22.2484C52.2021 21.258 52.9995 20.1788 53.9733 19.9084C54.1498 19.8182 54.3275 19.8182 54.4152 19.8182C54.9472 19.8182 55.1237 20.0886 55.2125 20.2689C55.389 20.6283 55.3014 21.258 54.8583 21.7977L52.3786 24.6773L45.384 32.7741C45.2075 32.9544 44.9421 33.0433 44.8532 33.0433C44.7644 33.0433 44.499 33.0433 44.3225 32.7741C43.8794 32.3247 43.4363 31.7838 42.9944 31.3343C42.1082 30.5243 41.3121 29.7154 40.869 28.7251C40.6036 28.0953 40.6036 27.1062 41.0467 26.4765C41.2232 26.1159 41.4886 25.9368 41.8428 25.9368C42.0205 25.9368 42.1971 25.9368 42.3748 26.027C42.5513 26.1159 42.9944 26.4765 44.1447 28.2756C44.4101 28.635 44.4101 28.7251 44.5879 28.8152C44.7644 28.9054 44.9421 28.9955 45.1186 28.9955C45.6506 28.9955 45.6506 28.9955 49.9891 23.9574C50.1656 23.687 50.4309 23.4178 50.5198 23.3276ZM40.3382 21.8878C41.5774 21.0777 43.082 20.7184 44.5879 20.7184C46.2702 20.7184 47.8636 21.258 49.1917 22.1582C49.1028 22.2484 48.8375 22.5176 48.4832 22.967C47.6871 23.8672 46.0048 25.8467 45.031 26.9259C44.2336 25.7566 43.5251 24.9465 42.9055 24.6773C41.4886 24.1377 40.1605 24.5872 39.452 25.8467C38.7435 27.0161 38.6559 28.6349 39.2755 29.8056C39.8951 31.0651 40.869 31.9641 41.7539 32.8643C42.1971 33.3138 42.6402 33.7632 42.9944 34.1238C43.4363 34.6634 44.1447 35.0228 44.8532 35.0228C45.5617 35.0228 46.2702 34.7536 46.712 34.214L52.7329 27.2865C52.9106 27.9163 52.9995 28.5461 52.9995 29.1758C52.9995 33.8534 49.2806 37.632 44.6767 37.632C40.0716 37.632 36.354 33.8534 36.354 29.1758C36.2651 26.206 37.8586 23.4178 40.3382 21.8878ZM29.0051 26.5666C29.0051 24.0475 31.0416 21.9779 33.5201 21.9779H37.4155C35.6455 23.8672 34.5828 26.3863 34.5828 29.0857C34.5828 34.7536 39.0978 39.341 44.6767 39.341C50.2544 39.341 54.7694 34.7536 54.7694 29.0857C54.7694 27.9163 54.5929 26.7456 54.1498 25.5763L56.3629 23.0572C56.6295 22.6979 56.8949 22.3373 56.9837 21.9779H57.691C60.1706 21.9779 62.2072 24.0475 62.2072 26.5666V41.5007H29.0051V26.5666ZM62.1183 65.6122C62.1183 68.1313 60.0818 70.2008 57.6033 70.2008H33.5201C31.0416 70.2008 29.0051 68.1313 29.0051 65.6122V65.3417H62.1183V65.6122ZM62.1183 63.5426H29.0051V60.1246H62.1183V63.5426ZM68.3156 53.8269C68.3156 56.346 66.3679 58.3242 63.8895 58.3242H25.2862C22.8065 58.3242 20.8588 56.346 20.8588 53.8269V47.8886C20.8588 45.3695 22.8065 43.39 25.2862 43.39H63.8895C66.3679 43.39 68.3156 45.3695 68.3156 47.8886V53.8269ZM48.2179 47.2588H48.129C47.7748 47.1686 47.4205 46.9883 47.3329 46.629L47.244 46.5389C46.712 45.5498 45.7382 44.92 44.6767 44.92C43.614 44.92 42.5513 45.5498 42.1082 46.5389L41.9317 46.629C41.7539 46.9883 41.4886 47.1686 41.0467 47.2588H40.9578C39.8951 47.4391 39.0101 48.159 38.6559 49.2382C38.3017 50.3175 38.567 51.4869 39.3644 52.2068L39.452 52.2969C39.7186 52.5674 39.8063 52.9267 39.8063 53.286V53.3762C39.6297 54.2764 39.8951 55.0864 40.4259 55.7162C41.3121 56.7954 42.8167 57.0646 43.9682 56.4349L44.0559 56.346C44.4101 56.1657 44.7644 56.1657 45.1186 56.346L45.2075 56.4349C45.6506 56.7053 46.0924 56.7954 46.5355 56.7954C47.4205 56.7954 48.2179 56.4349 48.7486 55.7162C49.2806 55.0864 49.546 54.1862 49.3682 53.3762V53.286C49.2806 52.9267 49.4571 52.5674 49.7225 52.2969L49.8113 52.2068C50.6087 51.3967 50.874 50.2273 50.5198 49.2382C50.1656 48.159 49.2806 47.3489 48.2179 47.2588ZM48.5721 50.9472L48.4832 51.0374C47.7748 51.7573 47.5094 52.6563 47.6871 53.6466V53.7367C47.7748 54.0961 47.6871 54.3665 47.4205 54.6357C47.0663 54.9963 46.5355 55.1753 46.0048 54.9061H45.9159C45.4728 54.7258 45.031 54.5456 44.5879 54.5456C44.1447 54.5456 43.614 54.6357 43.2598 54.9061H43.1709C42.7278 55.1753 42.1082 54.9963 41.7539 54.6357C41.5774 54.3665 41.4886 54.0961 41.4886 53.7367V53.6466C41.6663 52.6563 41.3121 51.7573 40.6925 51.0374L40.6036 50.9472C40.2494 50.6781 40.1605 50.2273 40.3382 49.7779C40.5147 49.3284 40.7801 49.0579 41.2232 48.9678H41.3121C42.2859 48.7888 43.082 48.2479 43.5251 47.3489L43.614 47.2588C43.7905 46.8995 44.1447 46.629 44.5879 46.629C45.031 46.629 45.384 46.8995 45.5617 47.2588L45.6506 47.3489C46.0924 48.2479 46.8898 48.7888 47.7748 48.9678H47.8636C48.3067 49.0579 48.661 49.3284 48.7486 49.7779C48.9263 50.2273 48.8375 50.6781 48.5721 50.9472ZM61.1445 47.2588H61.0556C60.7014 47.1686 60.3471 46.9883 60.2595 46.629L60.1706 46.5389C59.6399 45.5498 58.6648 44.92 57.6033 44.92C56.5406 44.92 55.4779 45.5498 55.0348 46.5389L54.9472 46.629C54.7694 46.9883 54.5041 47.1686 54.0609 47.2588H53.9733C52.9106 47.4391 52.0244 48.159 51.6714 49.2382C51.3171 50.3175 51.5825 51.4869 52.3786 52.2068L52.4675 52.2969C52.7329 52.5674 52.8217 52.9267 52.8217 53.286V53.3762C52.6452 54.2764 52.9106 55.0864 53.4413 55.7162C54.3275 56.7954 55.8321 57.0646 56.9837 56.4349L57.0714 56.346C57.4256 56.1657 57.7798 56.1657 58.1341 56.346L58.2229 56.4349C58.6648 56.7053 59.1079 56.7954 59.551 56.7954C60.436 56.7954 61.2333 56.4349 61.7641 55.7162C62.2961 55.0864 62.5614 54.1862 62.3837 53.3762V53.286C62.2961 52.9267 62.4726 52.5674 62.7379 52.2969L62.8268 52.2068C63.6241 51.3967 63.8895 50.2273 63.5353 49.2382C63.181 48.159 62.2072 47.3489 61.1445 47.2588ZM61.4987 50.9472L61.4098 51.0374C60.7014 51.6672 60.436 52.6563 60.6137 53.6466V53.7367C60.7014 54.0961 60.6137 54.3665 60.3471 54.6357C59.9929 54.9963 59.4622 55.1753 58.9314 54.9061C58.4883 54.7258 58.0452 54.5456 57.6033 54.5456C57.1602 54.5456 56.6295 54.6357 56.2752 54.9061H56.0975C55.6556 55.1753 55.0348 54.9963 54.6806 54.6357C54.5041 54.3665 54.4152 54.0961 54.4152 53.7367V53.6466C54.5929 52.6563 54.2387 51.7573 53.6191 51.0374L53.5302 50.9472C53.176 50.6781 53.0871 50.2273 53.2648 49.7779C53.4413 49.3284 53.7067 49.0579 54.1498 48.9678H54.2387C55.2125 48.7888 56.0086 48.2479 56.4517 47.3489L56.5406 47.2588C56.7171 46.8995 57.0714 46.629 57.5145 46.629C57.9576 46.629 58.3118 46.8995 58.4883 47.2588L58.5772 47.3489C59.019 48.2479 59.8164 48.7888 60.7014 48.9678H60.7902C61.2333 49.0579 61.5876 49.3284 61.6752 49.7779C61.7641 50.2273 61.853 50.6781 61.4987 50.9472ZM35.2024 47.2588H35.1135C34.7593 47.1686 34.4063 46.9883 34.3174 46.629L34.2285 46.5389C33.6978 45.5498 32.724 44.92 31.6612 44.92C30.5097 44.92 29.5358 45.5498 29.0939 46.5389L29.0051 46.629C28.8273 46.9883 28.562 47.1686 28.1189 47.2588H28.0312C26.9685 47.4391 26.0835 48.159 25.7293 49.2382C25.3751 50.3175 25.6404 51.4869 26.4378 52.2068L26.5254 52.2969C26.7908 52.5674 26.8796 52.9267 26.8796 53.286V53.3762C26.7031 54.2764 26.9685 55.0864 27.4992 55.7162C28.3855 56.7954 29.89 57.0646 31.0416 56.4349L31.1293 56.346C31.4835 56.1657 31.8377 56.1657 32.192 56.346L32.2808 56.4349C32.724 56.7053 33.1658 56.7954 33.6089 56.7954C34.4939 56.7954 35.2913 56.4349 35.822 55.7162C36.354 55.0864 36.6193 54.1862 36.4416 53.3762V53.286C36.354 52.9267 36.5305 52.5674 36.7958 52.2969L36.8847 52.2068C37.6821 51.3967 37.9474 50.2273 37.5932 49.2382C37.239 48.159 36.354 47.3489 35.2024 47.2588ZM35.5566 50.9472L35.4678 51.0374C34.7593 51.6672 34.4939 52.6563 34.6716 53.6466V53.7367C34.7593 54.0961 34.6716 54.3665 34.4063 54.6357C34.052 54.9963 33.5201 55.1753 32.9893 54.9061C32.5462 54.7258 32.1031 54.5456 31.6612 54.5456C31.2181 54.5456 30.6874 54.6357 30.3332 54.9061H30.1554C29.7135 55.1753 29.0939 54.9963 28.7397 54.6357C28.562 54.3665 28.4731 54.0961 28.4731 53.7367V53.6466C28.6508 52.6563 28.2966 51.7573 27.677 51.0374L27.5881 50.9472C27.2339 50.6781 27.145 50.2273 27.3227 49.7779C27.4992 49.3284 27.7659 49.0579 28.2077 48.9678H28.2966C29.2704 48.7888 30.0678 48.2479 30.5097 47.3489L30.5985 47.2588C30.775 46.8995 31.1293 46.629 31.5724 46.629C32.0155 46.629 32.3697 46.8995 32.5462 47.2588L32.6351 47.3489C33.0782 48.2479 33.8743 48.7888 34.7593 48.9678H34.8482C35.2913 49.0579 35.6455 49.3284 35.7344 49.7779C35.9997 50.2273 35.9109 50.6781 35.5566 50.9472Z" fill="#FD9B32"/>
</svg>
