<svg width="90" height="90" viewBox="0 0 90 90" fill="none" xmlns="http://www.w3.org/2000/svg">
<rect width="90" height="90" rx="20" fill="#FFF0E0"/>
<path fill-rule="evenodd" clip-rule="evenodd" d="M60.2749 31.8749C59.9758 31.6539 59.5738 31.6539 59.2746 31.8749L57.6107 33.1089L58.2513 31.1186C58.3652 30.7625 58.2416 30.3708 57.9425 30.151L56.2737 28.9232L58.3349 28.9281C58.703 28.9281 59.03 28.6863 59.1426 28.3302L59.7748 26.3374L60.4082 28.3302C60.5208 28.6875 60.8478 28.9281 61.2171 28.9281L63.2771 28.9232L61.6083 30.151C61.3092 30.3708 61.1844 30.7625 61.2995 31.1186L61.9389 33.1089L60.2749 31.8749ZM63.5629 36.2435C64.1284 36.2435 64.5498 35.6726 64.3694 35.1127L63.1051 31.18L66.4003 28.7538C67.0651 28.2663 66.72 27.192 65.9026 27.1932L61.8335 27.2018L60.5825 23.2642C60.3319 22.471 59.2201 22.4686 58.967 23.2642L57.7173 27.2018L53.647 27.1932C52.8296 27.1932 52.4869 28.2676 53.1493 28.7538L56.4457 31.18L55.1802 35.1127C54.9283 35.9009 55.8281 36.5664 56.4869 36.0777L59.7748 33.6393L63.0627 36.0777C63.2105 36.1882 63.3873 36.2435 63.5629 36.2435ZM30.3215 28.9281C30.6909 28.9281 31.0179 28.6875 31.1305 28.3302L31.7638 26.3374L32.396 28.3302C32.5098 28.6863 32.8356 28.9281 33.205 28.9281L35.2649 28.9232L33.5961 30.151C33.2982 30.3708 33.1735 30.7625 33.2873 31.1186L33.9279 33.1089L32.264 31.8749C31.9661 31.6539 31.5616 31.6539 31.2637 31.8749L29.5985 33.1089L30.2392 31.1186C30.3542 30.7625 30.2295 30.3708 29.9316 30.151L28.2616 28.9232L30.3215 28.9281ZM25.1383 28.7538L28.4335 31.18L27.1692 35.1127C26.9137 35.9071 27.8135 36.5664 28.4759 36.0777L31.7638 33.6393L35.0518 36.0777C35.7106 36.5664 36.6116 35.9009 36.3585 35.1127L35.0929 31.18L38.3893 28.7538C39.053 28.2651 38.7091 27.192 37.8892 27.1932L33.8214 27.2018L32.5716 23.2642C32.3197 22.4698 31.2068 22.471 30.9561 23.2642L29.7063 27.2018L25.6349 27.1932C24.8174 27.1932 24.4747 28.2651 25.1383 28.7538ZM67.9904 41.6803L68.4602 43.1414L67.2383 42.2353C66.9416 42.0143 66.5371 42.0143 66.238 42.2353L65.0173 43.1414L65.4872 41.6803C65.6022 41.3242 65.4775 40.9325 65.1784 40.7128L63.9528 39.8115L65.4666 39.8152C65.8335 39.8152 66.1617 39.5733 66.2743 39.2173L66.7382 37.7549L67.2032 39.2173C67.317 39.5746 67.6392 39.8189 68.0122 39.8152L69.5223 39.8115L68.3004 40.7128C68 40.9325 67.8753 41.3242 67.9904 41.6803ZM72.9568 38.6783C73.073 39.0343 72.9495 39.4236 72.6504 39.6433L69.7948 41.7417L70.892 45.1452C71.1414 45.9359 70.2453 46.5989 69.5841 46.1103L66.7382 43.9996L63.8947 46.1103C63.2371 46.5977 62.33 45.9445 62.588 45.1452L63.6815 41.7417L60.8296 39.6433C60.1659 39.1559 60.5075 38.0815 61.3261 38.0815L64.849 38.0889L65.9304 34.6817C66.1823 33.8885 67.2952 33.8885 67.5459 34.6817L68.6274 38.0889L72.1526 38.0815C72.5208 38.0815 72.8405 38.3222 72.9568 38.6783ZM24.5122 41.6803L24.9809 43.1414L23.759 42.2353C23.4623 42.0143 23.0566 42.0143 22.7587 42.2353L21.5392 43.1414L22.0079 41.6803C22.1229 41.3242 21.9982 40.9325 21.699 40.7128L20.4735 39.8115L21.9861 39.8152C22.359 39.814 22.6824 39.5746 22.795 39.2173L23.2588 37.7549L23.7251 39.2173C23.8377 39.5746 24.1647 39.8165 24.5328 39.8152L26.0442 39.8115L24.8211 40.7128C24.5219 40.9325 24.396 41.3242 24.5122 41.6803ZM27.4114 45.1452C27.6682 45.9421 26.7635 46.5989 26.1047 46.1103L23.2588 43.9996L20.4154 46.1103C19.7554 46.5989 18.8556 45.9335 19.1087 45.1452L20.2034 41.7417L17.3503 39.6433C16.6866 39.1559 17.0293 38.0815 17.848 38.0815L21.3696 38.0889L22.4523 34.6817C22.7042 33.8873 23.8159 33.8885 24.0678 34.6817L25.1492 38.0889L28.6709 38.0815C29.4895 38.0803 29.8335 39.1559 29.1698 39.6433L26.3167 41.7417L27.4114 45.1452ZM44.1247 23.8928C44.4953 23.8928 44.8223 23.6522 44.9349 23.2949L45.7693 20.6686L46.6037 23.2949C46.7163 23.6522 47.0421 23.8928 47.4115 23.8928L50.1266 23.8879L47.9274 25.5062C47.6294 25.726 47.5035 26.1164 47.6185 26.4725L48.4626 29.0963L46.2695 27.4695C45.9716 27.2485 45.5671 27.2485 45.2692 27.4695L43.076 29.0963L43.9189 26.4725C44.0339 26.1164 43.9092 25.726 43.6101 25.5062L41.4108 23.8879L44.1247 23.8928ZM38.2864 23.7185C37.6228 23.231 37.9667 22.1567 38.7854 22.1567L43.5095 22.1665L44.9616 17.5953C45.2147 16.8009 46.3264 16.8022 46.5771 17.5953L48.0279 22.1665L52.7521 22.1567C53.5707 22.1567 53.9159 23.2298 53.2522 23.7185L49.423 26.5339L50.8932 31.1002C51.1499 31.8958 50.244 32.5539 49.5865 32.0652L45.7693 29.2339L41.9522 32.0652C41.2934 32.5527 40.3912 31.8896 40.6455 31.1002L42.1145 26.5339L38.2864 23.7185ZM56.763 55.8002C56.7363 56.3712 56.3209 57.2699 55.7566 57.3534C55.4841 57.3608 53.6131 57.3657 53.3709 57.3657C52.901 57.3657 52.522 57.7525 52.522 58.2289C52.522 58.7053 52.901 59.092 53.3709 59.092C54.2198 59.092 55.0203 59.1043 55.4781 59.2652C57.2692 59.8901 56.7908 62.6711 55.2662 62.778C55.0893 62.7853 53.7427 62.8037 52.8187 62.8136C52.528 62.8001 52.2241 62.8037 51.9116 62.8222C51.4539 62.8504 51.1002 63.2433 51.1136 63.7086C51.1281 64.1752 51.5047 64.546 51.9625 64.546C51.9722 64.546 52.3113 64.5436 52.7739 64.5386C53.6991 64.5828 54.433 64.8296 54.8823 65.2545C55.9649 66.2772 55.1693 68.2761 53.5417 68.2761H42.8217C41.0536 68.2761 40.1187 66.8015 37.9873 66.195L35.6076 65.516V51.9117C39.3109 51.0744 41.7996 50.4334 43.4623 48.4566C45.1638 46.4332 45.8274 43.1782 45.8274 36.8476C45.8274 36.6425 45.9909 36.4743 46.1944 36.4743H47.8547C49.2607 36.4743 50.4027 37.6371 50.4027 39.0663C50.4027 39.9196 50.4124 40.6023 50.4184 41.1511C50.4475 43.5024 50.4511 43.7467 49.6676 47.122C49.5429 47.661 49.9473 48.1828 50.4923 48.1828H54.215C55.2262 48.1828 56.0485 49.0202 56.0485 50.0479C56.0485 50.9553 55.386 51.7447 54.5056 51.8884C54.3228 51.9019 53.4157 51.9117 53.2292 51.9117C52.7618 51.9117 52.3815 52.2985 52.3815 52.7749C52.3815 53.2513 52.7618 53.6368 53.2292 53.6368C54.944 53.6368 55.9528 53.8615 56.4045 54.344C56.5062 54.4533 56.8151 54.7824 56.763 55.8002ZM33.911 66.6665H28.9446C28.7617 66.6665 28.6067 66.5093 28.6067 66.3227V50.6188C28.6067 50.4322 28.7617 50.275 28.9446 50.275H33.911V66.6665ZM56.7727 52.5121C58.0164 53.1494 58.5371 54.3097 58.4596 55.8862C58.4197 56.6904 58.0418 57.7488 57.3104 58.4229C59.0022 60.1099 58.5056 63.3587 56.3076 64.2771C56.7993 64.8616 57.0609 65.5884 57.073 66.3988C57.1009 68.3928 55.4757 70 53.5417 70H42.8217C40.4384 70 39.386 68.3854 37.5307 67.8562L35.6076 67.3074V67.5284C35.6076 68.006 35.2274 68.3916 34.7587 68.3916H28.9446C27.822 68.3916 26.9089 67.4633 26.9089 66.3227V50.6188C26.9089 49.4782 27.822 48.55 28.9446 48.55H34.7587C35.2274 48.55 35.6076 48.9355 35.6076 49.4119V50.1449C38.7745 49.4217 40.9131 48.8311 42.1726 47.3344C43.5616 45.6818 44.1308 42.6441 44.1308 36.8476C44.1308 35.691 45.0548 34.7492 46.1944 34.7492H47.8547C50.1968 34.7492 52.1005 36.6855 52.1005 39.0663C52.1005 39.9085 52.109 40.5851 52.1163 41.129C52.1429 43.2986 52.1502 43.8314 51.5616 46.459H54.215C56.1623 46.459 57.7463 48.0686 57.7463 50.0479C57.7463 50.9884 57.377 51.8626 56.7727 52.5121Z" fill="#FD9B32"/>
</svg>
