<svg width="90" height="90" viewBox="0 0 90 90" fill="none" xmlns="http://www.w3.org/2000/svg">
<rect width="90" height="90" rx="20" fill="#FFF0E0"/>
<path d="M41.1384 34.8179L44.9916 34.3353L49.6627 31.7541C49.7957 31.68 49.9761 31.6235 50.0995 31.6435L50.775 31.6482C50.2752 30.882 50.0461 29.9827 50.1589 29.0658C50.4224 26.9248 52.3894 25.3959 54.5475 25.656C56.7044 25.9173 58.244 27.8712 57.9817 30.0121C57.9033 30.6454 57.6612 31.228 57.3086 31.7388C57.5852 31.7494 57.8 31.7565 57.8273 31.76C58.009 31.7777 58.1811 31.8518 58.32 31.9707L63.9621 36.82C65.1883 37.8734 65.3498 39.679 64.3301 40.9313L61.6438 44.2281C60.8401 45.2133 59.3978 45.3957 58.3734 44.6601L60.1825 58.3382C60.2157 58.5371 60.2157 58.7348 60.2015 58.929C60.9375 59.8577 61.5987 60.8546 62.1613 61.9233C63.346 64.1608 64.0559 66.5572 64.2684 69.0454C64.2909 69.2914 64.2066 69.5339 64.0381 69.7152C63.8707 69.8964 63.6345 70 63.3864 70H26.8865C26.6372 70 26.401 69.8964 26.2324 69.7152C26.065 69.5327 25.9819 69.2903 26.0033 69.0443C26.5695 62.5542 30.3954 56.8716 36.2358 53.8455C37.1368 53.3782 38.0675 53.0075 39.0124 52.6897V33.7021L36.8709 33.2407C36.0696 33.0665 35.2458 33.2631 34.6107 33.7751C33.8023 34.4259 32.8099 34.7649 31.8057 34.7649C31.2276 34.7649 30.6447 34.6519 30.0916 34.4236L27.6972 33.4337C27.3684 33.2972 27.1524 32.977 27.1524 32.6216V24.9616C27.1524 24.6673 27.3008 24.3931 27.5465 24.2295C27.7946 24.067 28.1044 24.0376 28.3798 24.1494L30.7729 25.1393C31.6858 25.5171 32.7268 25.3676 33.4949 24.7485C34.5502 23.8976 35.9165 23.5739 37.2472 23.8611L39.0124 24.2424V23.6115C38.1316 23.2537 37.5083 22.3969 37.5083 21.3952C37.5083 20.0746 38.5909 19 39.9216 19C41.2523 19 42.3361 20.0746 42.3361 21.3952C42.3361 22.4133 41.6892 23.2796 40.7846 23.6257V34.8979C40.8986 34.8638 41.0161 34.8332 41.1384 34.8179ZM39.0112 26.0421L36.8709 25.5795C36.072 25.4077 35.247 25.6019 34.6107 26.1139C33.337 27.1414 31.6039 27.3874 30.0916 26.7636L28.9247 26.281V32.0354L30.7729 32.8005C31.6846 33.1771 32.7257 33.0276 33.4949 32.4097C34.2985 31.7624 35.2826 31.4198 36.2928 31.4198C36.6097 31.4198 36.9302 31.454 37.246 31.5222L39.0112 31.9024V26.0421ZM45.2302 47.9392C45.2706 47.8074 45.3418 47.6862 45.4368 47.5873L49.6995 43.1488L49.4004 37.7192L47.5379 38.5549C47.4524 38.5937 47.361 38.6173 47.2672 38.6279L41.656 39.2246C41.358 39.2576 41.0636 39.2293 40.7846 39.1469V52.1871C42.2495 51.8457 43.7428 51.6598 45.2445 51.6715L45.153 48.8467C45.1151 48.5407 45.14 48.2358 45.2302 47.9392ZM54.3326 27.4015C54.2448 27.3909 54.1569 27.3862 54.0691 27.3862C52.9901 27.3862 52.0511 28.1878 51.9169 29.2777C51.8469 29.8485 52.006 30.4123 52.3621 30.8655C52.7194 31.3186 53.2322 31.6058 53.8079 31.6753C54.9831 31.8189 56.0788 30.9773 56.2236 29.7991C56.3684 28.6209 55.5197 27.5463 54.3326 27.4015ZM58.4328 58.6147C58.428 58.5818 56.6118 44.8566 56.6118 44.8566L56.3411 36.7741C56.3293 36.4198 56.5323 36.0926 56.8575 35.9455C56.975 35.8913 57.1021 35.8654 57.2267 35.8654C57.4439 35.8654 57.66 35.9466 57.8273 36.0997L61.1025 39.1022C61.2746 39.2599 61.3779 39.48 61.3862 39.7131C61.3957 39.9473 61.3102 40.1733 61.1511 40.3451L59.3195 42.3096C59.2008 42.4379 59.1426 42.6038 59.1557 42.778C59.1687 42.9522 59.2506 43.1076 59.3872 43.2159C59.6554 43.4277 60.0495 43.3877 60.2668 43.1217L62.9531 39.8249C63.3686 39.3153 63.3021 38.5784 62.8035 38.1488L57.3953 33.5008C57.1946 33.4949 56.9169 33.4855 56.6391 33.4773C56.0942 33.4596 55.5494 33.4408 55.5862 33.4408L54.3077 33.4314C54.2305 33.4361 54.1558 33.4502 54.0786 33.4502C53.9516 33.4502 53.8222 33.4396 53.694 33.4267L50.3203 33.4031L45.7038 35.9549C45.6053 36.009 45.4961 36.0443 45.3833 36.0585L41.3592 36.5634C41.1135 36.594 40.9366 36.8106 40.9568 37.0554C40.9698 37.2237 41.066 37.3261 41.123 37.372C41.1776 37.4191 41.2998 37.4921 41.4684 37.4756L46.9372 36.8941L49.8479 35.5877C50.1126 35.4676 50.4236 35.4864 50.6729 35.6359C50.9222 35.7866 51.0813 36.0502 51.0967 36.3398L51.4896 43.4324C51.5038 43.6749 51.416 43.9115 51.2474 44.0869L46.9111 48.6019C46.9111 48.6313 46.9147 48.6655 46.917 48.7066L47.1259 55.1531C47.1509 55.3521 47.3076 55.5086 47.5094 55.5322C47.5426 55.5369 47.5782 55.5369 47.6174 55.5322C47.7753 55.5121 47.8679 55.4203 47.9106 55.3674C47.9521 55.3132 48.0198 55.2002 47.9996 55.0449C47.9961 55.0154 47.9937 54.986 47.9925 54.9554L47.8774 49.9496C47.8726 49.6965 47.9771 49.4541 48.1634 49.2822L53.5112 44.3894C53.7522 44.1693 54.1 44.0986 54.4086 44.2081C54.7184 44.3176 54.9416 44.5883 54.9891 44.912L56.9869 58.8678C57.032 59.115 57.1982 59.3174 57.4332 59.4116C57.7941 59.5587 58.0683 59.3845 58.168 59.3045C58.2701 59.2244 58.498 58.9961 58.4328 58.6147ZM59.2495 39.7967L58.1811 38.8174L58.2488 40.8689L59.2495 39.7967ZM49.658 50.3062L49.7031 52.2471C50.0972 52.3436 50.4925 52.4319 50.883 52.5543C52.1603 52.9521 53.3735 53.4794 54.5166 54.1115L53.472 46.8175L49.658 50.3062ZM39.9216 20.7585C39.5679 20.7585 39.2794 21.0445 39.2794 21.3952C39.2794 21.746 39.5679 22.032 39.9216 22.032C40.2754 22.032 40.5639 21.746 40.5639 21.3952C40.5639 21.0445 40.2754 20.7585 39.9216 20.7585ZM37.0561 55.4039C32.0431 58.0015 28.6659 62.7531 27.8789 68.2415H62.394C62.1186 66.3289 61.5144 64.4822 60.592 62.7402C60.2074 62.0093 59.7599 61.3266 59.2863 60.6686C58.8221 61.0406 58.2749 61.2289 57.7181 61.2289C57.3988 61.2289 57.0771 61.1665 56.7673 61.0417C55.966 60.7204 55.3962 60.0236 55.2372 59.1479L54.8395 56.3678C53.4708 55.4592 51.9668 54.7341 50.3536 54.2315C50.1518 54.168 49.9476 54.1292 49.7458 54.0738L49.7636 54.8766C49.8218 55.4415 49.6615 55.9971 49.3078 56.4479C48.9445 56.9104 48.4222 57.2047 47.837 57.2765C47.6554 57.3 47.4726 57.3012 47.2945 57.2788C46.2855 57.1564 45.4925 56.3714 45.362 55.2897L45.3014 53.43C42.4632 53.3982 39.6439 54.0609 37.0561 55.4039Z" fill="#FD9B32"/>
</svg>
