<svg width="90" height="90" viewBox="0 0 90 90" fill="none" xmlns="http://www.w3.org/2000/svg">
<rect width="90" height="90" rx="20" fill="#FFF0E0"/>
<mask id="mask0_2054_9" style="mask-type:luminance" maskUnits="userSpaceOnUse" x="25" y="19" width="40" height="55">
<path d="M25 19.9999H64.991V73.1613H25V19.9999Z" fill="white"/>
</mask>
<g mask="url(#mask0_2054_9)">
<path d="M59.7395 24.3921H55.7825V23.4964C55.7825 21.5774 54.2218 20.0155 52.3028 20.0155H37.1299C35.2122 20.0155 33.6502 21.5774 33.6502 23.4964V24.3921H30.2515C27.3558 24.3921 25 26.7492 25 29.6448V67.8947C25 70.7916 27.3558 73.1487 30.2515 73.1487H59.7383C62.6339 73.1487 64.9897 70.7916 64.9897 67.8947V29.6448C64.991 26.7492 62.6352 24.3921 59.7395 24.3921ZM36.1802 23.4964C36.1802 22.9725 36.606 22.5455 37.1299 22.5455H52.3028C52.8267 22.5455 53.2537 22.9725 53.2537 23.4964V27.2719C53.2537 27.7958 52.8267 28.2215 52.3028 28.2215H37.1299C36.606 28.2215 36.1802 27.7958 36.1802 27.2719V23.4964ZM62.4609 67.8947C62.4609 69.3966 61.2401 70.6174 59.7395 70.6174H30.2527C28.7509 70.6174 27.53 69.3966 27.53 67.8947V29.6448C27.53 28.1442 28.7509 26.9222 30.2527 26.9222H33.6514V27.2719C33.6514 29.1909 35.2122 30.7516 37.1312 30.7516H52.304C54.223 30.7516 55.7837 29.1909 55.7837 27.2719V26.9222H59.7395C61.2413 26.9222 62.4622 28.1442 62.4622 29.6448V67.8947H62.4609Z" fill="#FD9B32"/>
</g>
<path d="M43.1461 26.1494H46.2872C46.9866 26.1494 47.5522 25.5826 47.5522 24.8844C47.5522 24.185 46.9866 23.6182 46.2872 23.6182H43.1461C42.448 23.6182 41.8823 24.185 41.8823 24.8844C41.8823 25.5826 42.448 26.1494 43.1461 26.1494Z" fill="#FD9B32"/>
<path d="M55.8817 38.0732H44.142C43.4426 38.0732 42.877 38.6389 42.877 39.3383C42.877 40.0364 43.4426 40.6033 44.142 40.6033H55.8817C56.5811 40.6033 57.1467 40.0364 57.1467 39.3383C57.1467 38.6389 56.5799 38.0732 55.8817 38.0732Z" fill="#FD9B32"/>
<path d="M40.4354 35.4587L36.5924 39.3617L34.5397 37.3605C34.0403 36.8722 33.2391 36.882 32.752 37.3826C32.2637 37.8832 32.2735 38.6844 32.7741 39.1715L35.7274 42.0525C35.9728 42.293 36.2918 42.412 36.6109 42.412C36.9372 42.412 37.2648 42.2856 37.5115 42.0341L42.2378 37.2341C42.7273 36.736 42.7212 35.9348 42.2231 35.4452C41.7261 34.9544 40.9249 34.9605 40.4354 35.4587Z" fill="#FD9B32"/>
<path d="M55.8817 48.1812H44.142C43.4426 48.1812 42.877 48.7468 42.877 49.4462C42.877 50.1455 43.4426 50.7112 44.142 50.7112H55.8817C56.5811 50.7112 57.1467 50.1455 57.1467 49.4462C57.1467 48.7468 56.5799 48.1812 55.8817 48.1812Z" fill="#FD9B32"/>
<path d="M40.4354 45.5676L36.5924 49.4706L34.5397 47.4694C34.0403 46.9811 33.2391 46.9909 32.752 47.4915C32.2637 47.9921 32.2735 48.7921 32.7741 49.2805L35.7274 52.1614C35.9728 52.4007 36.2918 52.5209 36.6109 52.5209C36.9372 52.5209 37.2648 52.3945 37.5115 52.143L42.2378 47.3431C42.7273 46.8449 42.7212 46.0437 42.2231 45.5529C41.7261 45.0633 40.9249 45.0695 40.4354 45.5676Z" fill="#FD9B32"/>
<path d="M55.8817 58.4375H44.142C43.4426 58.4375 42.877 59.0031 42.877 59.7025C42.877 60.4019 43.4426 60.9675 44.142 60.9675H55.8817C56.5811 60.9675 57.1467 60.4019 57.1467 59.7025C57.1467 59.0031 56.5799 58.4375 55.8817 58.4375Z" fill="#FD9B32"/>
<path d="M40.4354 55.8241L36.5924 59.7271L34.5397 57.7259C34.0403 57.2375 33.2391 57.2486 32.752 57.748C32.2637 58.2486 32.2735 59.0486 32.7741 59.5369L35.7274 62.4179C35.9728 62.6571 36.2918 62.7774 36.6109 62.7774C36.9385 62.7774 37.2648 62.651 37.5115 62.3995L42.2378 57.5983C42.7273 57.1014 42.7212 56.3001 42.2231 55.8093C41.7261 55.3185 40.9249 55.3259 40.4354 55.8241Z" fill="#FD9B32"/>
</svg>
