<svg width="54" height="54" viewBox="0 0 54 54" fill="none" xmlns="http://www.w3.org/2000/svg">
<circle cx="27" cy="27" r="27" fill="#FEF5D2"/>
<path fill-rule="evenodd" clip-rule="evenodd" d="M28.2825 20.7565C29.9465 22.4723 32.1631 23.6245 34.9337 24.2096C32.1631 24.7934 29.9465 25.948 28.2825 27.6626C26.6279 29.3676 25.5248 31.6217 24.9674 34.4191C24.4089 31.6217 23.3058 29.3676 21.6512 27.6626C19.986 25.948 17.7717 24.7934 15 24.2096C17.7717 23.6245 19.986 22.4723 21.6512 20.7565C23.3058 19.0503 24.4089 16.7974 24.9674 14C25.5248 16.7974 26.6279 19.0503 28.2825 20.7565ZM26.6453 38.681C27.0398 38.2754 27.3225 37.7597 27.4971 37.1363C27.6705 37.7597 27.9532 38.2754 28.3477 38.681C28.7456 39.0914 29.253 39.3881 29.872 39.5688C29.253 39.7506 28.7456 40.0462 28.3477 40.4565C27.9532 40.8621 27.6705 41.3778 27.4971 42C27.3225 41.3778 27.0398 40.8621 26.6453 40.4565C26.2485 40.0462 25.7412 39.7506 25.1233 39.5688C25.7412 39.3881 26.2485 39.0914 26.6453 38.681ZM34.1471 33.6187C34.8627 32.8816 35.3758 31.9484 35.6912 30.8165C36.0054 31.9484 36.5208 32.8816 37.2341 33.6187C37.9567 34.3629 38.8783 34.9013 40 35.2303C38.8783 35.5594 37.9567 36.0966 37.2341 36.8408C36.5208 37.5778 36.0054 38.5123 35.6912 39.6429C35.3758 38.5123 34.8627 37.5778 34.1471 36.8408C33.4256 36.0966 32.5029 35.5594 31.3812 35.2303C32.5029 34.9013 33.4256 34.3629 34.1471 33.6187Z" fill="#FD9B32"/>
</svg>
