<svg width="54" height="54" viewBox="0 0 54 54" fill="none" xmlns="http://www.w3.org/2000/svg">
<circle cx="27" cy="27" r="27" fill="#E6F5FE"/>
<path d="M42.989 32.0055C42.8324 30.6348 42.6142 29.3973 42.3422 28.3318C42.1593 27.5911 41.7121 26.9333 41.083 26.4791C39.634 25.4283 38.1262 24.733 37.1272 24.338C38.1869 23.1855 38.8688 21.5313 38.8688 19.7201C38.8688 16.5124 36.5989 14 33.7018 14C30.9279 14 28.7353 16.304 28.5523 19.3142C28.2138 19.2401 27.8615 19.2006 27.5005 19.2006C27.1395 19.2006 26.7882 19.2391 26.4487 19.3142C26.2657 16.304 24.0731 14 21.2992 14C18.4021 14 16.1322 16.5124 16.1322 19.7201C16.1322 21.5313 16.8141 23.1855 17.8738 24.338C16.8748 24.733 15.368 25.4283 13.919 26.4781C13.2889 26.9324 12.8417 27.5911 12.6597 28.3268C12.3868 29.3973 12.1686 30.6348 12.012 32.0065C11.9122 32.8865 12.4425 33.7328 13.2761 34.0192C14.4121 34.4004 16.2026 34.6424 18.589 34.7441C18.4589 35.4018 18.3238 36.2176 18.2113 37.2061C18.1115 38.088 18.6438 38.9344 19.4774 39.2188C21.0038 39.7363 23.7032 40 27.4995 40C31.2958 40 33.9943 39.7363 35.5226 39.2188C36.3552 38.9344 36.8875 38.088 36.7877 37.2052C36.6752 36.2166 36.5402 35.4008 36.411 34.7441C38.7964 34.6424 40.5869 34.4004 41.7268 34.0182C42.5565 33.7328 43.0878 32.8865 42.988 32.0055H42.989ZM33.7018 15.0399C36.0588 15.0399 37.8356 17.0526 37.8356 19.7201C37.8356 22.4902 35.9032 24.9197 33.7018 24.9197C33.3525 24.9197 33.0032 24.8594 32.6597 24.7409C32.5981 22.4329 31.3614 20.5091 29.5699 19.6638C29.5953 17.024 31.3614 15.0399 33.7018 15.0399ZM31.6343 24.9197C31.6343 27.6898 29.7029 30.1203 27.5005 30.1203C25.2981 30.1203 23.3667 27.6898 23.3667 24.9197C23.3667 22.2522 25.1435 20.2405 27.5005 20.2405C29.8575 20.2405 31.6343 22.2522 31.6343 24.9197ZM21.2992 15.0399C23.6396 15.0399 25.4067 17.024 25.4311 19.6638C23.6396 20.5091 22.4029 22.4329 22.3413 24.7409C21.9978 24.8594 21.6485 24.9197 21.2992 24.9197C19.0978 24.9197 17.1654 22.4902 17.1654 19.7201C17.1654 17.0526 18.9422 15.0399 21.2992 15.0399ZM13.6069 33.0336C13.2321 32.9052 12.9934 32.523 13.0374 32.125C13.19 30.8017 13.3994 29.6107 13.6616 28.5816C13.7849 28.0809 14.0902 27.6345 14.5217 27.3234C16.1645 26.1324 17.8836 25.4283 18.7544 25.1162C19.5117 25.6495 20.3805 25.9606 21.2992 25.9606C21.6671 25.9606 22.0331 25.9053 22.3941 25.8075C22.5751 27.2671 23.1905 28.5777 24.075 29.5386C23.0761 29.9346 21.5673 30.6298 20.1202 31.6787C19.4911 32.1329 19.0449 32.7917 18.8649 33.5235C18.8493 33.5817 18.8326 33.6489 18.817 33.7141C15.8592 33.5985 14.3495 33.2835 13.6059 33.0336H13.6069ZM35.1929 38.2332C34.2164 38.565 32.0883 38.9601 27.4995 38.9601C22.9117 38.9601 20.7836 38.565 19.8081 38.2332C19.4334 38.1058 19.1927 37.7226 19.2377 37.3246C19.4295 35.6468 19.6839 34.4755 19.8658 33.7812C19.9891 33.2805 20.2934 32.8341 20.7229 32.523C22.3647 31.334 24.0838 30.6298 24.9556 30.3168C25.7129 30.8481 26.5818 31.1602 27.4995 31.1602C28.4183 31.1602 29.2881 30.8491 30.0444 30.3168C30.9162 30.6298 32.6363 31.334 34.2771 32.524C34.7066 32.8341 35.0109 33.2805 35.1361 33.7891C35.3162 34.4765 35.5706 35.6477 35.7623 37.3246C35.8064 37.7236 35.5666 38.1058 35.1919 38.2342L35.1929 38.2332ZM41.3971 33.0326C40.6505 33.2835 39.1418 33.5985 36.183 33.7141C36.1684 33.6518 36.1517 33.5876 36.1371 33.5314C35.9551 32.7907 35.5089 32.1329 34.8808 31.6787C33.4327 30.6298 31.924 29.9336 30.925 29.5386C31.8085 28.5777 32.4249 27.2671 32.6059 25.8075C32.967 25.9053 33.3329 25.9606 33.7008 25.9606C34.6195 25.9606 35.4884 25.6495 36.2457 25.1162C37.1165 25.4293 38.8365 26.1334 40.4793 27.3244C40.9098 27.6345 41.2151 28.0809 41.3393 28.5865C41.6006 29.6117 41.81 30.8017 41.9626 32.125C42.0066 32.523 41.7679 32.9062 41.3971 33.0336V33.0326Z" fill="#026AEE"/>
</svg>
